<svg width="145" height="60" viewBox="0 0 145 60" fill="none" xmlns="http://www.w3.org/2000/svg">
<g clip-path="url(#clip0_196_55351)">
<path d="M92.8895 20.5282C91.3738 21.8247 90.2912 23.2653 89.6416 24.922C89.4251 25.7143 89.2807 26.4346 89.2807 27.0828C89.2807 29.6759 91.3016 31.6206 95.2713 32.9172C98.0861 33.7815 101.262 34.2857 104.726 34.2857H111.294C112.954 34.2857 114.47 34.5018 115.841 34.8619C117.79 35.4382 118.8 36.3025 118.8 37.527C118.8 37.8151 118.728 38.1032 118.656 38.3914C118.079 39.904 116.419 40.9844 113.604 41.6327C112.088 41.9928 110.5 42.1369 108.84 42.1369H84.9502L82.9293 47.8992H110.933C114.037 47.8271 117.357 47.3229 120.893 46.3866C127.75 44.5858 131.936 41.7047 133.38 37.6711C133.596 36.8788 133.741 36.1585 133.741 35.5102C133.741 32.8451 131.72 30.9724 127.75 29.6759C124.935 28.7395 121.76 28.3073 118.223 28.3073H111.872C110.139 28.3073 108.624 28.0912 107.325 27.7311C105.376 27.1549 104.365 26.2905 104.365 25.066C104.365 24.7779 104.438 24.4898 104.582 24.1297C105.087 22.617 106.819 21.5366 109.634 20.8884C111.078 20.5282 112.521 20.3842 114.109 20.3842H114.326H120.966H138.071L140.164 14.6218H122.987H112.16H55.1419H50.5226H30.7466C26.777 14.6218 22.5187 15.3421 17.8995 16.8547C9.0219 19.6639 3.32006 24.4898 0.866103 31.2605C0.288701 33.1333 0 34.7899 0 36.3025C0 40.2641 1.94873 43.2893 5.91837 45.3782C9.3106 47.1789 13.4968 48.1152 18.4769 48.1152L43.233 48.1873L50.1618 28.6675H36.9537L32.0458 42.3529H22.3021C19.7038 42.3529 17.6108 41.7047 16.1672 40.4082C14.7237 39.1116 13.9298 37.383 13.9298 35.1501C13.9298 33.9256 14.1463 32.7011 14.5794 31.2605C16.1672 26.8667 19.1264 23.7695 23.5291 21.9688C25.8387 21.0324 27.9318 20.5282 29.7362 20.5282H52.9766V20.4562H65.7516L56.008 48.0432H69.216L79.0319 20.5282H92.8895Z" fill="#E30613"/>
<path d="M13.8576 2.44898H11.4037L7.43404 11.5246H4.18616L9.09407 0.216085H14.7959L13.8576 2.44898Z" fill="black"/>
<path d="M18.7656 11.5246H15.4455L19.4152 2.44898H18.4769L15.6621 8.85954C15.3012 9.72389 14.9403 10.3001 14.5073 10.6603C14.0742 11.0204 13.6412 11.2365 13.0638 11.3085C12.5585 11.5246 11.7646 11.5246 10.682 11.5246H10.1768L11.0429 9.57983C11.4759 9.57983 11.7646 9.5078 11.909 9.43577C12.1255 9.36374 12.342 9.0036 12.5585 8.4994L16.1673 0.216085H23.6735L18.7656 11.5246Z" fill="black"/>
<path d="M29.5919 6.84274C29.0866 7.9952 28.7258 8.78751 28.4371 9.29172C28.1484 9.79592 27.7875 10.2281 27.2822 10.5882C26.9214 10.8764 26.6327 11.0924 26.1996 11.2365V7.05882L27.8596 3.09724C28.1483 2.59304 28.2927 2.30492 28.2927 2.16086C28.2927 2.01681 28.2205 1.94478 28.004 1.94478C27.8596 1.94478 27.6431 2.01681 27.4988 2.16086C27.3544 2.30492 27.1379 2.66507 26.9214 3.2413L26.2718 4.82593V0.504202C26.4161 0.432173 26.6327 0.360144 26.8492 0.288115C27.4266 0.0720288 28.0762 0 28.7979 0C29.4475 0 30.0249 0.0720288 30.458 0.288115C30.891 0.504202 31.1797 0.792317 31.3962 1.15246C31.5406 1.58463 31.5406 2.01681 31.3962 2.44898C31.2519 2.95318 30.891 3.7455 30.458 4.89796L29.5919 6.84274ZM26.1996 11.2365C25.9831 11.3085 25.8387 11.3806 25.6222 11.4526C25.0448 11.6687 24.3231 11.7407 23.6013 11.7407C22.9517 11.7407 22.3743 11.6687 21.9413 11.4526C21.5082 11.2365 21.2195 10.9484 21.0752 10.5882C20.9308 10.1561 20.9308 9.72389 21.0752 9.29172C21.2195 8.78751 21.5804 7.9952 22.0135 6.84274L22.8796 4.89796C23.3848 3.7455 23.7457 2.95318 24.0344 2.44898C24.3231 1.94478 24.6839 1.51261 25.1892 1.15246C25.55 0.864346 25.8387 0.648259 26.2718 0.504202V4.68187L24.6839 8.42737C24.3952 9.07563 24.2509 9.5078 24.2509 9.65186C24.2509 9.79592 24.3231 9.86795 24.5396 9.86795C24.7561 9.86795 24.9726 9.79592 25.0448 9.57983C25.1892 9.43577 25.4057 9.0036 25.6944 8.28331L26.2718 6.98679V11.2365H26.1996Z" fill="black"/>
<path d="M37.5311 8.93157C37.1702 9.79592 36.8093 10.3721 36.3762 10.7323C35.9432 11.0924 35.5101 11.3085 34.9327 11.3806C34.7162 11.4526 34.4275 11.4526 34.0666 11.4526V9.07563C34.1388 8.93157 34.2832 8.71548 34.3553 8.4994L35.0771 6.91476C35.3658 6.41056 35.438 6.19448 35.3658 6.05042C35.2936 5.97839 35.0049 5.90636 34.5719 5.90636L34.211 6.77071V0.216085H40.2015L39.2633 2.16086H36.0875L35.2936 4.10564H35.7988C36.8093 4.10564 37.5311 4.17767 38.0363 4.2497C38.5415 4.39376 38.758 4.60984 38.9024 4.96999C38.9746 5.33013 38.8302 5.90636 38.5415 6.69868L37.5311 8.93157ZM34.1388 11.5246C33.7058 11.5246 33.1284 11.5966 32.551 11.5966H28.7979L33.7058 0.288114H34.1388V6.84274L32.9118 9.65186C33.3449 9.65186 33.6336 9.57983 33.7779 9.5078C33.9223 9.43577 33.9945 9.29171 34.1388 9.14766V11.5246Z" fill="black"/>
<path d="M48.1408 0.216085L45.1095 11.5246H43.5216V6.77071C43.8825 5.61825 44.3156 4.32173 44.893 2.73709C44.3877 3.60144 43.9547 4.39376 43.5216 5.04202V0.216085H48.1408ZM43.4494 11.5246H41.7172L42.439 9.5078H41.2842L40.2016 11.5246H36.8093L43.3773 0.216085H43.4494V5.04202C42.872 6.05042 42.439 6.84274 42.0781 7.49099H43.1607C43.2329 7.27491 43.3051 6.98679 43.3773 6.77071V11.5246H43.4494Z" fill="black"/>
<path d="M53.6262 11.5246H50.3061L54.2758 2.44898H53.3375L50.5227 8.93157C50.1618 9.79592 49.8009 10.3721 49.3679 10.7323C48.9348 11.0924 48.5018 11.3085 47.9244 11.3806C47.4913 11.5246 46.6252 11.5246 45.5426 11.5246H45.0374L45.9035 9.57983C46.3365 9.57983 46.553 9.5078 46.7696 9.43577C46.9861 9.36374 47.2026 9.0036 47.4191 8.4994L51.0279 0.216085H58.5341L53.6262 11.5246Z" fill="black"/>
<path d="M69.2882 0.216085L68.2777 2.52101H66.329L62.4315 11.5246H59.1115L63.0811 2.52101H61.1324L62.1428 0.216085H69.2882Z" fill="black"/>
<path d="M72.2474 0.216085H73.33C74.2683 0.216085 74.9179 0.288114 75.3509 0.432172C75.784 0.576229 76.0727 0.720287 76.217 0.936373C76.3614 1.15246 76.3614 1.44058 76.2892 1.80072C76.217 2.16086 76.0727 2.66506 75.784 3.38535L75.3509 4.39376C75.0622 5.11404 74.7735 5.61825 74.4127 5.97839C74.0518 6.33853 73.6909 6.55462 73.1135 6.69868C72.8248 6.77071 72.6083 6.84274 72.2474 6.91476V4.7539C72.3917 4.60984 72.5361 4.32173 72.7526 4.03361L73.1857 3.09724C73.33 2.73709 73.4022 2.44898 73.33 2.37695C73.2578 2.23289 72.9691 2.23289 72.6083 2.23289L72.3918 2.73709V0.216085H72.2474ZM70.01 0.216085H72.2474V2.66507L71.1648 5.04202C71.2369 5.04202 71.3091 5.04202 71.3813 5.04202C71.67 5.04202 71.8865 4.96999 72.103 4.82593L72.1752 4.7539V6.91476C71.8865 6.98679 71.5256 6.98679 71.1648 6.98679H70.2987L68.3499 11.5246H65.1021L70.01 0.216085Z" fill="black"/>
<path d="M83.6511 0.216085L80.6197 11.5246H79.0319V6.77071C79.3927 5.61825 79.8258 4.32173 80.4032 2.73709C79.898 3.60144 79.4649 4.39376 79.0319 5.04202V0.216085H83.6511ZM78.9597 11.5246H77.2275L77.9492 9.5078H76.7944L75.7118 11.5246H72.3196L78.8875 0.216085H78.9597V5.04202C78.3823 6.05042 77.9492 6.84274 77.5884 7.49099H78.7432C78.8153 7.27491 78.8875 6.98679 78.9597 6.77071V11.5246Z" fill="black"/>
<path d="M86.1051 0.216085H89.353L87.3321 5.04202C87.9816 5.04202 88.4147 4.68187 88.7034 4.10564L89.7139 1.87275C90.0747 1.08043 90.5078 0.504201 90.9408 0.216085H93.9722C93.5391 0.504201 93.1783 1.08043 92.8174 1.94478L91.9513 3.88955C91.4461 5.11404 90.4356 5.7623 88.8477 5.90636C90.2912 6.05042 90.7243 6.77071 90.1469 7.92317L89.353 9.72389C88.9921 10.5882 88.8477 11.1645 88.9921 11.5246H85.9607C85.7442 11.2365 85.8164 10.7323 86.1773 9.86795L87.1155 7.63505C87.2599 7.34694 87.2599 7.13085 87.1155 6.98679C86.9712 6.77071 86.8268 6.69868 86.5381 6.69868L84.4451 11.5246H81.125L86.1051 0.216085Z" fill="black"/>
<path d="M102.922 5.18607H99.6739L100.54 3.16927C100.829 2.59304 100.901 2.23289 100.901 2.08884C100.901 1.94478 100.757 1.87275 100.54 1.87275C100.251 1.87275 100.035 1.94478 99.8904 2.16086C99.7461 2.30492 99.5296 2.66507 99.313 3.2413L97.0034 8.4994C96.7869 9.0036 96.6425 9.36374 96.6425 9.57983C96.6425 9.72389 96.7869 9.79592 97.0034 9.79592C97.2199 9.79592 97.4365 9.72389 97.5808 9.57983C97.7252 9.36374 97.9417 9.0036 98.2304 8.35534L98.8078 6.91477H102.128L101.911 7.34694C101.406 8.4994 100.973 9.36374 100.54 9.86795C100.107 10.3721 99.5296 10.8043 98.7356 11.1645C97.9417 11.5246 97.0756 11.6687 96.1373 11.6687C95.199 11.6687 94.4773 11.5246 93.9721 11.1645C93.4668 10.8763 93.2503 10.4442 93.3225 9.86795C93.3947 9.29172 93.6112 8.4994 94.1164 7.34694L95.5599 4.03361C95.9208 3.2413 96.2095 2.59304 96.426 2.23289C96.6426 1.80072 97.0034 1.44058 97.5087 1.08043C98.0139 0.720288 98.5191 0.432172 99.1687 0.216086C99.8183 -6.10948e-07 100.468 -0.144058 101.19 -0.144058C102.128 -0.144058 102.85 -6.10948e-07 103.355 0.360143C103.86 0.720288 104.077 1.15246 104.077 1.65666C104.077 2.16086 103.788 2.95318 103.355 4.03361L102.922 5.18607Z" fill="black"/>
<path d="M106.314 0.216085H111.727L110.717 2.52101H108.552L107.685 4.60984H109.706L108.768 6.77071H106.675L105.592 9.29171H107.974L107.036 11.5246H101.334L106.314 0.216085Z" fill="black"/>
<path d="M115.119 0.216085H116.202C117.068 0.216085 117.718 0.288114 118.151 0.432172C118.584 0.576229 118.873 0.720287 119.017 0.936373C119.161 1.15246 119.233 1.44058 119.161 1.80072C119.089 2.16086 118.945 2.66506 118.584 3.38535L118.151 4.39376C117.862 5.11404 117.501 5.61825 117.213 5.97839C116.924 6.33853 116.491 6.55462 115.986 6.69868C115.697 6.77071 115.48 6.84274 115.119 6.91476V4.7539C115.264 4.60984 115.408 4.32173 115.553 4.03361L115.986 3.09724C116.13 2.73709 116.202 2.44898 116.13 2.37695C116.058 2.23289 115.769 2.23289 115.336 2.23289L115.119 2.73709V0.216085ZM112.882 0.216085H115.119V2.66507L114.109 5.04202C114.181 5.04202 114.253 5.04202 114.326 5.04202C114.614 5.04202 114.831 4.96999 115.047 4.82593L115.119 4.7539V6.91476C114.831 6.98679 114.47 6.98679 114.109 6.98679H113.243L111.222 11.5246H107.902L112.882 0.216085Z" fill="black"/>
<path d="M123.203 0.216085H124.213C125.224 0.216085 126.018 0.288114 126.451 0.432172C126.956 0.576229 127.245 0.864345 127.389 1.29652C127.534 1.72869 127.389 2.44898 126.956 3.45738C126.667 4.10564 126.379 4.53781 126.018 4.82593C125.657 5.11404 125.152 5.2581 124.43 5.40216C125.08 5.54622 125.513 5.83433 125.657 6.19448C125.801 6.55462 125.657 7.05882 125.368 7.85114L124.863 8.93157C124.502 9.65186 124.213 10.3001 123.853 10.5882C123.708 10.7323 123.492 10.8763 123.347 11.0204V4.53781C123.347 4.53781 123.42 4.53781 123.42 4.46578C123.564 4.32173 123.78 3.88955 124.069 3.2413C124.213 2.88115 124.286 2.66506 124.286 2.52101C124.286 2.37695 124.213 2.30492 124.141 2.23289C124.069 2.23289 123.78 2.16086 123.492 2.16086L123.347 2.44898V0.216085H123.203ZM121.182 0.216085H123.203V2.44898L122.265 4.68187C122.409 4.68187 122.553 4.68187 122.626 4.68187C122.914 4.68187 123.131 4.60984 123.275 4.53781V11.0204C123.059 11.1645 122.77 11.3085 122.553 11.3806C122.265 11.4526 121.832 11.5246 121.254 11.5966V9.36374C121.399 9.21969 121.543 9.0036 121.687 8.64346L122.193 7.56302C122.409 7.05882 122.481 6.77071 122.409 6.69868C122.265 6.48259 121.976 6.48259 121.471 6.41056L121.182 7.05882V0.216085ZM120.893 0.216085H121.182V7.05882L120.099 9.57983C120.605 9.57983 120.893 9.5078 121.038 9.36374C121.11 9.36374 121.11 9.29171 121.182 9.21969V11.5246C120.749 11.5246 120.316 11.5246 119.739 11.5246H115.913L120.893 0.216085Z" fill="black"/>
<path d="M132.081 11.5246H129.338L131.575 6.41056L127.606 11.5246H124.791L129.699 0.216085H132.441L130.204 5.33013L134.246 0.216085H137.061L132.081 11.5246Z" fill="black"/>
<path d="M143.845 5.18607H140.597L141.463 3.16927C141.752 2.59304 141.824 2.23289 141.824 2.08884C141.824 1.94478 141.68 1.87275 141.463 1.87275C141.175 1.87275 140.958 1.94478 140.886 2.16086C140.742 2.30492 140.525 2.66507 140.309 3.2413L137.999 8.4994C137.71 9.0036 137.638 9.36375 137.638 9.57983C137.638 9.72389 137.782 9.79592 137.999 9.79592C138.288 9.79592 138.432 9.72389 138.576 9.57983C138.721 9.36375 138.937 9.0036 139.226 8.35534L139.876 6.91477H143.123L142.907 7.34694C142.402 8.4994 141.969 9.36374 141.536 9.86795C141.103 10.3721 140.525 10.8043 139.731 11.1645C138.937 11.5246 138.071 11.6687 137.205 11.6687C136.195 11.6687 135.545 11.5246 135.04 11.1645C134.535 10.8764 134.318 10.4442 134.39 9.86795C134.462 9.29172 134.679 8.4994 135.184 7.34694L136.628 4.03361C136.989 3.2413 137.277 2.59304 137.494 2.23289C137.71 1.80072 138.071 1.44058 138.576 1.08043C139.082 0.720288 139.587 0.432173 140.236 0.216086C140.742 0.144058 141.463 0 142.185 0C143.123 0 143.845 0.144058 144.35 0.504202C144.856 0.864346 145.072 1.29652 145 1.80072C145 2.30492 144.711 3.09724 144.278 4.17767L143.845 5.18607Z" fill="black"/>
<path d="M5.7018 57.2629L6.64008 57.551C6.49573 58.0552 6.2792 58.4154 5.91833 58.7035C5.55745 58.9196 5.19657 59.0636 4.69135 59.0636C4.04177 59.0636 3.53654 58.8475 3.17567 58.4154C2.74262 57.9832 2.59827 57.407 2.59827 56.6867C2.59827 55.8944 2.81479 55.3181 3.17567 54.8859C3.60872 54.4538 4.11395 54.2377 4.76352 54.2377C5.34092 54.2377 5.77398 54.3817 6.13485 54.7419C6.35138 54.958 6.49573 55.2461 6.64008 55.6062L5.7018 55.8223C5.62963 55.6062 5.55745 55.3901 5.34092 55.2461C5.19657 55.102 4.98005 55.03 4.69135 55.03C4.33047 55.03 4.04177 55.1741 3.82525 55.3902C3.60872 55.6062 3.53654 56.0384 3.53654 56.6146C3.53654 57.1909 3.60872 57.623 3.82525 57.8391C4.04177 58.0552 4.33047 58.1993 4.61917 58.1993C4.8357 58.1993 5.05222 58.1272 5.26875 57.9832C5.55745 57.8391 5.62963 57.623 5.7018 57.2629Z" fill="#E30613"/>
<path d="M9.09399 58.9916V54.3097H12.5584V55.102H10.0323V56.1825H12.4141V56.9027H10.0323V58.1993H12.6306V58.9916H9.09399Z" fill="#E30613"/>
<path d="M16.0951 58.9916V55.102H14.7238V54.3097H18.4047V55.102H17.0334V58.9916H16.0951Z" fill="#E30613"/>
<path d="M20.7142 54.3097H21.6525V56.1825H22.8795C23.4569 56.1825 23.8899 56.3265 24.1786 56.6146C24.4673 56.9027 24.6117 57.1909 24.6117 57.623C24.6117 57.9112 24.5395 58.1993 24.3952 58.4154C24.2508 58.6314 24.0343 58.7755 23.8178 58.8475C23.6012 58.9196 23.3125 58.9916 22.9517 58.9916H20.7142V54.3097ZM21.6525 58.1993H22.5908C22.8795 58.1993 23.096 58.1993 23.2404 58.1272C23.3847 58.1272 23.4569 58.0552 23.5291 57.9112C23.6012 57.8391 23.6734 57.6951 23.6734 57.551C23.6734 57.3349 23.6012 57.1909 23.4569 57.0468C23.3125 56.9748 23.0238 56.9027 22.663 56.9027H21.6525V58.1993Z" fill="#E30613"/>
<path d="M33.4893 57.2629L34.4276 57.551C34.2832 58.0552 34.0667 58.4154 33.7058 58.7035C33.3449 58.9196 32.984 59.0636 32.4788 59.0636C31.8292 59.0636 31.324 58.8475 30.9631 58.4154C30.5301 57.9832 30.3857 57.407 30.3857 56.6867C30.3857 55.8944 30.6023 55.3181 30.9631 54.8859C31.3962 54.4538 31.9014 54.2377 32.551 54.2377C33.1284 54.2377 33.5615 54.3817 33.9223 54.7419C34.1389 54.958 34.2832 55.2461 34.4276 55.6062L33.4893 55.8223C33.4171 55.6062 33.3449 55.3901 33.1284 55.2461C32.9841 55.102 32.7675 55.03 32.4788 55.03C32.1179 55.03 31.8292 55.1741 31.6127 55.3902C31.3962 55.6062 31.324 56.0384 31.324 56.6146C31.324 57.1909 31.3962 57.623 31.6127 57.8391C31.8292 58.0552 32.1179 58.1993 32.4066 58.1993C32.6232 58.1993 32.8397 58.1272 33.0562 57.9832C33.2727 57.8391 33.3449 57.623 33.4893 57.2629Z" fill="#E30613"/>
<path d="M36.8093 58.9916V54.3097H40.2737V55.102H37.7476V56.1825H40.1294V56.9027H37.7476V58.1993H40.3459V58.9916H36.8093Z" fill="#E30613"/>
<path d="M42.7998 58.9916V54.3097H44.3155C44.8929 54.3097 45.2538 54.3097 45.4703 54.3817C45.759 54.4538 45.9755 54.5978 46.1199 54.8139C46.2642 55.03 46.4086 55.3181 46.4086 55.7503C46.4086 56.0384 46.3364 56.2545 46.2642 56.4706C46.192 56.6867 46.0477 56.8307 45.9033 56.9027C45.759 57.0468 45.6146 57.1188 45.3981 57.1188C45.1816 57.1909 44.8207 57.1909 44.3877 57.1909H43.7381V58.9196H42.7998V58.9916ZM43.7381 55.102V56.3986H44.2433C44.6042 56.3986 44.8929 56.3985 44.9651 56.3265C45.1094 56.2545 45.1816 56.1825 45.2538 56.1104C45.3259 56.0384 45.3259 55.8943 45.3259 55.7503C45.3259 55.6062 45.2538 55.4622 45.1816 55.3181C45.1094 55.1741 44.9651 55.1741 44.8207 55.102C44.6764 55.102 44.4598 55.102 44.1711 55.102H43.7381Z" fill="#E30613"/>
<path d="M48.7904 54.3097H50.667C51.0279 54.3097 51.3166 54.3097 51.4609 54.3817C51.6774 54.3817 51.8218 54.4538 51.9661 54.5978C52.1105 54.6699 52.2548 54.8139 52.327 54.958C52.3992 55.102 52.4714 55.3181 52.4714 55.5342C52.4714 55.7503 52.3992 55.9664 52.327 56.1104C52.1827 56.3265 52.0383 56.3986 51.8218 56.5426C52.1105 56.6146 52.327 56.7587 52.4714 56.9748C52.6157 57.1909 52.6879 57.407 52.6879 57.6951C52.6879 57.9112 52.6157 58.1272 52.5436 58.3433C52.4714 58.5594 52.327 58.7035 52.1105 58.8475C51.9661 58.9916 51.7496 59.0636 51.4609 59.0636C51.3166 59.0636 50.9557 59.0636 50.3061 59.0636H48.7183V54.3097H48.7904ZM49.7287 55.102V56.1825H50.3783C50.7392 56.1825 50.9557 56.1825 51.0279 56.1825C51.1722 56.1825 51.3166 56.1104 51.3887 56.0384C51.4609 55.9664 51.5331 55.8223 51.5331 55.6783C51.5331 55.5342 51.4609 55.3901 51.3887 55.3181C51.3166 55.2461 51.1722 55.1741 51.0279 55.1741C50.9557 55.1741 50.667 55.1741 50.2339 55.1741H49.7287V55.102ZM49.7287 56.9748V58.1993H50.5948C50.9557 58.1993 51.1722 58.1993 51.2444 58.1993C51.3887 58.1993 51.5331 58.1272 51.6053 57.9832C51.6774 57.9112 51.7496 57.7671 51.7496 57.623C51.7496 57.479 51.7496 57.3349 51.6774 57.2629C51.6053 57.1909 51.5331 57.1188 51.3887 57.0468C51.2444 56.9748 50.9557 56.9748 50.5226 56.9748H49.7287Z" fill="#E30613"/>
<path d="M55.1418 54.3097H56.0079V57.4069L57.8845 54.3097H58.8228V58.9916H57.9567V55.9664L56.0801 58.9916H55.1418V54.3097Z" fill="#E30613"/>
<path d="M64.4524 57.2629L65.3907 57.551C65.2463 58.0552 65.0298 58.4154 64.6689 58.7035C64.3081 58.9196 63.9472 59.0636 63.442 59.0636C62.7924 59.0636 62.2872 58.8475 61.9263 58.4154C61.4932 57.9832 61.3489 57.407 61.3489 56.6867C61.3489 55.8944 61.5654 55.3181 61.9263 54.8859C62.3593 54.4538 62.8646 54.2377 63.5141 54.2377C64.0915 54.2377 64.5246 54.3817 64.8855 54.7419C65.102 54.958 65.2463 55.2461 65.3907 55.6062L64.4524 55.8223C64.3802 55.6062 64.3081 55.3901 64.0915 55.2461C63.9472 55.102 63.7307 55.03 63.442 55.03C63.0811 55.03 62.7924 55.1741 62.5759 55.3902C62.3593 55.6062 62.2872 56.0384 62.2872 56.6146C62.2872 57.1909 62.3593 57.623 62.5759 57.8391C62.7924 58.0552 63.0811 58.1993 63.3698 58.1993C63.5863 58.1993 63.8028 58.1272 64.0194 57.9832C64.2359 57.8391 64.3802 57.623 64.4524 57.2629Z" fill="#E30613"/>
<path d="M67.7725 58.9916V54.3097H68.7107V56.1825H70.5873V54.3817H71.5256V59.0636H70.5873V57.0468H68.7107V59.0636H67.7725V58.9916Z" fill="#E30613"/>
<path d="M74.1961 54.3097H75.1344V56.1825H76.3613C76.7222 56.1825 77.0109 56.2545 77.2274 56.3265C77.444 56.3985 77.6605 56.5426 77.8048 56.8307C77.9492 57.0468 78.0214 57.3349 78.0214 57.623C78.0214 57.9112 77.9492 58.1993 77.8048 58.4154C77.6605 58.6314 77.444 58.7755 77.2274 58.8475C77.0109 58.9196 76.7222 58.9916 76.3613 58.9916H74.1239V54.3097H74.1961ZM75.1344 58.1993H76.0726C76.3613 58.1993 76.5779 58.1993 76.65 58.1272C76.7944 58.1272 76.8666 58.0552 76.9387 57.9112C77.0109 57.8391 77.0831 57.6951 77.0831 57.551C77.0831 57.3349 77.0109 57.1909 76.8666 57.1188C76.7222 57.0468 76.4335 56.9748 76.0726 56.9748H75.1344V58.1993ZM78.5988 54.3097H79.537V58.9916H78.5988V54.3097Z" fill="#E30613"/>
<path d="M81.7023 58.9916L83.2901 56.5426L81.8466 54.3097H82.9293L83.8675 55.8223L84.8058 54.3097H85.8884L84.4449 56.5426L86.0328 58.9196H84.878L83.8675 57.3349L82.8571 58.9196H81.7023V58.9916Z" fill="#E30613"/>
<path d="M94.5495 57.2629L95.4877 57.551C95.3434 58.0552 95.1269 58.4154 94.766 58.7035C94.4051 58.9196 94.0442 59.0636 93.539 59.0636C92.8894 59.0636 92.3842 58.8475 92.0233 58.4154C91.5903 57.9832 91.4459 57.407 91.4459 56.6867C91.4459 55.8944 91.6625 55.3181 92.0233 54.8859C92.4564 54.4538 92.9616 54.2377 93.6112 54.2377C94.1886 54.2377 94.6216 54.3817 94.9825 54.7419C95.199 54.958 95.3434 55.2461 95.4877 55.6062L94.5495 55.8223C94.4773 55.6062 94.4051 55.3901 94.1886 55.2461C94.0442 55.102 93.8277 55.03 93.539 55.03C93.1781 55.03 92.8894 55.1741 92.6729 55.3902C92.4564 55.6062 92.3842 56.0384 92.3842 56.6146C92.3842 57.1909 92.4564 57.623 92.6729 57.8391C92.8894 58.0552 93.1781 58.1993 93.4668 58.1993C93.6834 58.1993 93.8999 58.1272 94.1164 57.9832C94.4051 57.8391 94.4773 57.623 94.5495 57.2629Z" fill="#E30613"/>
<path d="M98.8078 58.9916V55.102H97.4365V54.3097H101.117V55.102H99.7461V58.9916H98.8078Z" fill="#E30613"/>
<path d="M107.18 58.9916H106.17L105.737 57.9112H103.86L103.499 58.9916H102.489L104.293 54.3097H105.304L107.18 58.9916ZM105.448 57.1188L104.798 55.3901L104.149 57.1188H105.448Z" fill="#E30613"/>
<path d="M109.345 58.9916V54.3097H110.284V56.1825H112.16V54.3817H113.099V59.0636H112.16V57.0468H110.284V59.0636H109.345V58.9916Z" fill="#E30613"/>
<path d="M115.697 54.3097H116.635V58.1993H118.439V54.3097H119.378V58.1993H119.739V60H118.945V58.9916H115.625V54.3097H115.697Z" fill="#E30613"/>
<path d="M122.048 54.3097H122.914V57.4069L124.791 54.3097H125.729V58.9916H124.863V55.9664L122.986 58.9916H122.048V54.3097Z" fill="#E30613"/>
<path d="M128.4 54.3097H129.266V57.407L131.142 54.3097H132.081V58.9916H131.214V55.9664L129.338 58.9916H128.4V54.3097ZM130.854 53.1573H131.287C131.287 53.4454 131.142 53.6615 130.998 53.8055C130.854 53.9496 130.565 54.0216 130.276 54.0216C129.988 54.0216 129.771 53.9496 129.554 53.8055C129.41 53.6615 129.266 53.4454 129.266 53.1573H129.699C129.699 53.3013 129.771 53.4454 129.843 53.5174C129.915 53.5894 130.06 53.6615 130.276 53.6615C130.421 53.6615 130.565 53.5894 130.709 53.5174C130.781 53.4454 130.781 53.3013 130.854 53.1573Z" fill="#E30613"/>
</g>
<defs>
<clipPath id="clip0_196_55351">
<rect width="145" height="60" fill="white"/>
</clipPath>
</defs>
</svg>
