<svg width="14" height="14" viewBox="0 0 14 14" fill="none" xmlns="http://www.w3.org/2000/svg">
<path d="M2.8 6.06667C3.88889 8.24444 5.75556 10.0333 7.93333 11.2L9.64444 9.48889C9.87778 9.25556 10.1889 9.17778 10.4222 9.33333C11.2778 9.64444 12.2111 9.8 13.2222 9.8C13.6889 9.8 14 10.1111 14 10.5778V13.2222C14 13.6889 13.6889 14 13.2222 14C5.91111 14 0 8.08889 0 0.777778C0 0.311111 0.388889 0 0.777778 0H3.5C3.96667 0 4.27778 0.311111 4.27778 0.777778C4.27778 1.71111 4.43333 2.64444 4.74444 3.57778C4.82222 3.81111 4.74444 4.12222 4.58889 4.35556L2.8 6.06667ZM8.55556 0C8.08889 0 7.77778 0.311111 7.77778 0.777778C7.77778 1.24444 8.08889 1.55556 8.55556 1.55556C9.02222 1.55556 9.33333 1.24444 9.33333 0.777778C9.33333 0.311111 9.02222 0 8.55556 0ZM10.8889 0C10.4222 0 10.1111 0.311111 10.1111 0.777778C10.1111 1.24444 10.4222 1.55556 10.8889 1.55556C11.3556 1.55556 11.6667 1.24444 11.6667 0.777778C11.6667 0.311111 11.3556 0 10.8889 0ZM13.2222 0C12.7556 0 12.4444 0.311111 12.4444 0.777778C12.4444 1.24444 12.7556 1.55556 13.2222 1.55556C13.6889 1.55556 14 1.24444 14 0.777778C14 0.311111 13.6889 0 13.2222 0ZM8.55556 2.33333C8.08889 2.33333 7.77778 2.64444 7.77778 3.11111C7.77778 3.57778 8.08889 3.88889 8.55556 3.88889C9.02222 3.88889 9.33333 3.57778 9.33333 3.11111C9.33333 2.64444 9.02222 2.33333 8.55556 2.33333ZM10.8889 2.33333C10.4222 2.33333 10.1111 2.64444 10.1111 3.11111C10.1111 3.57778 10.4222 3.88889 10.8889 3.88889C11.3556 3.88889 11.6667 3.57778 11.6667 3.11111C11.6667 2.64444 11.3556 2.33333 10.8889 2.33333ZM13.2222 2.33333C12.7556 2.33333 12.4444 2.64444 12.4444 3.11111C12.4444 3.57778 12.7556 3.88889 13.2222 3.88889C13.6889 3.88889 14 3.57778 14 3.11111C14 2.64444 13.6889 2.33333 13.2222 2.33333ZM8.55556 4.66667C8.08889 4.66667 7.77778 4.97778 7.77778 5.44444C7.77778 5.91111 8.08889 6.22222 8.55556 6.22222C9.02222 6.22222 9.33333 5.91111 9.33333 5.44444C9.33333 4.97778 9.02222 4.66667 8.55556 4.66667ZM10.8889 4.66667C10.4222 4.66667 10.1111 4.97778 10.1111 5.44444C10.1111 5.91111 10.4222 6.22222 10.8889 6.22222C11.3556 6.22222 11.6667 5.91111 11.6667 5.44444C11.6667 4.97778 11.3556 4.66667 10.8889 4.66667ZM13.2222 4.66667C12.7556 4.66667 12.4444 4.97778 12.4444 5.44444C12.4444 5.91111 12.7556 6.22222 13.2222 6.22222C13.6889 6.22222 14 5.91111 14 5.44444C14 4.97778 13.6889 4.66667 13.2222 4.66667Z" fill="#CD0612"/>
</svg>
