<svg width="26" height="18" viewBox="0 0 26 18" fill="none" xmlns="http://www.w3.org/2000/svg">
<g clip-path="url(#clip0_196_49191)">
<path d="M9.22073 15.2259C9.09528 16.1086 8.6562 16.8336 7.93485 17.338C7.33895 17.7793 6.64896 17.9685 5.89625 17.9054C5.17489 17.8424 4.54763 17.5587 4.01446 17.0543C3.48129 16.5499 3.19902 15.951 3.07357 15.2259C2.72857 15.2259 2.38358 15.2259 2.06995 15.2259C1.78768 15.2259 1.47405 15.2259 1.19178 15.2259C0.97224 15.2259 0.752699 15.1629 0.56452 15.0368C0.125437 14.7215 0.0313476 14.3433 0.125437 13.8389C0.188163 13.6182 0.313615 13.4291 0.501794 13.303C0.658609 13.2084 0.815425 13.0823 1.0036 13.0823C1.03497 13.0823 1.06633 13.0508 1.09769 13.0508C1.09769 13.0193 1.09769 12.9562 1.09769 12.8932C1.09769 11.6953 1.09769 10.4658 1.09769 9.26795C1.09769 9.04728 1.16042 8.88966 1.31723 8.73205C1.53678 8.47986 1.75632 8.22767 1.97586 7.97548C2.28949 7.59719 2.60312 7.21891 2.91675 6.84063C3.19902 6.49387 3.44992 6.17863 3.70083 5.83187C3.9831 5.48511 4.26536 5.16987 4.54763 4.85464C4.67308 4.72854 4.76717 4.57092 4.89263 4.44483C4.95535 4.38178 5.0808 4.31873 5.17489 4.31873C6.55487 4.31873 7.90348 4.31873 9.28346 4.31873C9.53436 4.31873 9.78527 4.35026 10.0048 4.41331C10.3498 4.47635 10.6948 4.60245 10.9771 4.85464C11.1966 5.04378 11.3221 5.29597 11.4161 5.57968C11.5416 6.02101 11.573 6.46234 11.573 6.9352C11.573 8.07005 11.573 9.2049 11.573 10.3398C11.573 10.4028 11.573 10.4343 11.573 10.4974C12.5139 10.4974 13.4548 10.4974 14.3956 10.4974C14.3956 10.4658 14.3956 10.4028 14.3956 10.3398C14.3956 8.25919 14.3956 6.17863 14.3956 4.12959C14.3956 3.8774 14.6152 3.65674 14.8661 3.65674C15.3993 3.68826 15.9324 3.65674 16.4656 3.65674C16.6224 3.65674 16.7165 3.53064 16.8106 3.4676C16.9988 3.37303 17.187 3.21541 17.3751 3.08931C17.6574 2.86865 17.971 2.64798 18.2533 2.42732C18.6297 2.1436 19.006 1.89141 19.3824 1.63923C19.6646 1.45008 19.9469 1.26094 20.2292 1.0718C20.4487 0.914182 20.6683 0.72504 20.9192 0.567421C21.1387 0.409803 21.3582 0.220661 21.6092 0.0945669C21.7032 0.0315196 21.8914 0.0630432 21.9855 0.0945669C22.111 0.157614 22.2051 0.252185 22.2051 0.409803C22.2051 2.52189 22.2051 4.60245 22.2051 6.71453C22.2051 6.84063 22.1423 6.90367 22.0482 6.99824C21.9541 7.09282 21.8287 7.21891 21.7346 7.345C21.6719 7.43958 21.6405 7.56567 21.7346 7.66024C21.8601 7.78633 21.9855 7.91243 22.1423 8.03852C22.2678 8.1331 22.4246 8.19614 22.5814 8.29071C22.7069 8.35376 22.801 8.32224 22.8637 8.19614C22.9578 8.03852 23.0205 7.88091 23.1146 7.72329C23.1773 7.59719 23.3655 7.4711 23.4909 7.50262C23.6478 7.50262 23.8046 7.56567 23.8987 7.75481C23.9927 7.91243 23.93 8.03852 23.8673 8.16462C23.7418 8.44833 23.585 8.73204 23.3341 8.98423C23.2087 9.11033 23.0832 9.2049 22.895 9.2049C22.7069 9.2049 22.4873 9.23642 22.3305 9.17338C22.0796 9.0788 21.8287 8.92119 21.6092 8.79509C21.3582 8.63747 21.1073 8.44833 20.9819 8.16462C20.9192 8.03852 20.8564 7.88091 20.8564 7.72329C20.8251 7.53415 20.8251 7.31348 20.9192 7.15586C21.0446 6.96672 21.1387 6.8091 21.2642 6.61996C21.2955 6.55691 21.3269 6.52539 21.3269 6.46234C21.3269 4.79159 21.3269 3.15236 21.3269 1.48161C21.3269 1.45008 21.3269 1.41856 21.3269 1.38704C21.1073 1.54465 20.9192 1.70227 20.731 1.82837C20.5114 1.98599 20.2605 2.1436 20.0096 2.30122C19.7274 2.49036 19.4451 2.71103 19.1628 2.90017C18.7865 3.18388 18.3788 3.43607 18.0024 3.71979C17.7201 3.90893 17.4692 4.12959 17.187 4.31873C17.1242 4.38178 17.0929 4.41331 17.0929 4.47635C17.0929 5.80035 17.0929 7.15586 17.0929 8.47986C17.0929 9.11033 17.0929 9.7408 17.0929 10.3713C17.0929 10.4028 17.0929 10.4658 17.0929 10.5289C17.1556 10.5289 17.187 10.5289 17.2497 10.5289C19.2883 10.5289 21.3582 10.5289 23.3968 10.5289C23.7105 10.5289 23.9927 10.5289 24.3064 10.5289C24.62 10.4974 24.7768 10.7496 24.7768 11.0333C24.7768 11.6637 24.7768 12.3257 24.7768 12.9562C24.7768 12.9877 24.7768 13.0508 24.7768 13.0823C24.965 13.1138 25.1218 13.1454 25.2786 13.1769C25.4668 13.2399 25.655 13.3975 25.7491 13.5552C25.9373 13.8389 25.9686 14.1541 25.8745 14.4693C25.8118 14.7531 25.5923 14.9737 25.3414 15.1313C25.0591 15.289 24.7768 15.289 24.4632 15.2574C24.275 15.2259 24.0868 15.289 23.8987 15.289C23.3028 15.289 22.7382 15.289 22.1423 15.289C22.0796 15.5096 22.0482 15.6988 21.9541 15.9194C21.8601 16.1401 21.7346 16.3608 21.6092 16.5814C21.4837 16.8336 21.2642 17.0543 21.0446 17.2434C20.9192 17.3695 20.7624 17.4326 20.6369 17.5587C20.4174 17.7163 20.1665 17.8109 19.9469 17.8739C19.7587 17.9369 19.5706 17.9685 19.351 18C19.0374 18 18.7237 18.0315 18.4101 17.9369C18.2219 17.8739 18.0024 17.8424 17.8142 17.7478C17.5633 17.6217 17.3438 17.4956 17.1242 17.338C16.842 17.1489 16.6224 16.8967 16.4656 16.613C16.3088 16.3292 16.1206 16.0771 16.0579 15.7303C16.0265 15.6042 16.0265 15.5096 15.9638 15.3835C15.9638 15.352 15.9324 15.3205 15.9011 15.289C15.9011 15.289 15.8697 15.289 15.8383 15.289C13.6429 15.289 11.4789 15.289 9.28346 15.289C9.31482 15.2259 9.28346 15.2259 9.22073 15.2259ZM16.0892 13.9019C16.0579 13.9019 15.9952 13.9019 15.9638 13.9019C14.3643 13.9019 12.7334 13.9019 11.1339 13.9019C10.9143 13.9019 10.6634 13.6813 10.6634 13.4291C10.6634 11.4116 10.6634 9.39404 10.6634 7.37653C10.6634 6.9352 10.7262 6.46234 10.6007 6.02101C10.5693 5.86339 10.538 5.70578 10.4439 5.57968C10.2871 5.32749 10.0362 5.26444 9.78527 5.2014C9.62845 5.16987 9.47164 5.16987 9.34618 5.16987C8.9071 5.16987 8.49938 5.16987 8.0603 5.16987C8.02894 5.16987 7.96621 5.16987 7.90348 5.16987C7.90348 5.23292 7.90348 5.29597 7.90348 5.32749C7.90348 6.61996 7.90348 7.94395 7.90348 9.23642C7.90348 9.48861 7.90348 9.48861 7.65258 9.48861C6.6176 9.48861 5.58261 9.52014 4.51627 9.52014C4.26536 9.52014 4.01446 9.48861 3.76356 9.48861C3.19902 9.48861 2.60312 9.48861 2.03859 9.48861C2.00722 9.48861 1.97586 9.48861 1.91313 9.48861C1.91313 9.55166 1.91313 9.61471 1.91313 9.64623C1.91313 10.8126 1.91313 11.979 1.91313 13.1454C1.91313 13.7128 1.78768 13.9019 1.22314 13.8389C1.19178 13.8389 1.16042 13.8389 1.12906 13.8389C0.97224 13.8389 0.909514 13.9334 0.909514 14.0595C0.909514 14.1856 0.97224 14.2487 1.12906 14.2487C1.63086 14.2487 2.10131 14.2487 2.60312 14.2487C2.75994 14.2487 2.88539 14.2487 3.07357 14.2487C3.19902 13.5552 3.48129 12.9247 4.01446 12.4203C4.51627 11.9159 5.14353 11.6322 5.83352 11.5692C6.58623 11.5061 7.30758 11.6637 7.93485 12.1051C8.6562 12.641 9.09528 13.3345 9.2521 14.2487C10.193 14.2487 11.0712 14.2487 11.9807 14.2487C13.2979 14.2487 14.6152 14.2487 15.9011 14.2487C15.9952 14.2487 16.0579 14.2172 16.0579 14.1226C16.0265 14.1226 16.0579 14.028 16.0892 13.9019ZM11.5416 13.0508C11.6043 13.0508 11.6671 13.0508 11.6984 13.0508C13.2352 13.0508 14.7406 13.0508 16.2774 13.0508C16.4342 13.0508 16.5597 13.0193 16.6224 12.8616C16.6538 12.7986 16.6851 12.7671 16.7165 12.7355C16.9674 12.4518 17.2497 12.1996 17.5947 12.0105C17.971 11.7898 18.3788 11.6637 18.7865 11.6322C19.2256 11.6007 19.6333 11.6322 20.041 11.7898C20.4174 11.9159 20.7623 12.1051 21.0446 12.3573C21.2642 12.5464 21.421 12.7355 21.6092 12.9562C21.6719 13.0193 21.7032 13.0508 21.766 13.0508C22.456 13.0508 23.1146 13.0508 23.8046 13.0508C23.8359 13.0508 23.8673 13.0508 23.93 13.0508C23.93 12.4834 23.93 11.9159 23.93 11.3485C19.7901 11.3485 15.6815 11.3485 11.5416 11.3485C11.5416 11.9159 11.5416 12.4834 11.5416 13.0508ZM7.08804 8.70052C7.08804 7.53415 7.08804 6.36777 7.08804 5.2014C6.49214 5.2014 5.92761 5.2014 5.33171 5.2014C5.30035 5.2014 5.26898 5.23292 5.23762 5.23292C4.89263 5.64273 4.54763 6.08406 4.20264 6.49387C3.92037 6.8091 3.66947 7.15586 3.3872 7.4711C3.07357 7.84938 2.75994 8.25919 2.41494 8.669C3.9831 8.70052 5.51989 8.70052 7.08804 8.70052ZM17.4692 13.1769C17.4065 13.2399 17.3438 13.3345 17.281 13.3975C17.2497 13.4606 17.1556 13.4921 17.1556 13.5236C17.0929 13.6497 17.0301 13.7758 16.9988 13.9334C16.9361 14.1541 16.842 14.3748 16.842 14.5954C16.8106 14.9107 16.8733 15.1944 16.9674 15.5096C17.0929 15.9194 17.3124 16.2347 17.626 16.5184C17.971 16.8021 18.3474 16.9912 18.7865 17.0543C19.0374 17.0858 19.2883 17.0858 19.5392 17.0228C19.8842 16.9282 20.1664 16.8336 20.4487 16.613C20.8564 16.2977 21.1701 15.8879 21.2955 15.3835C21.3582 15.1629 21.3896 14.9422 21.3896 14.7531C21.3896 14.4693 21.3582 14.2172 21.2014 13.965C21.1073 13.7758 21.0133 13.5552 20.8878 13.3975C20.7623 13.2399 20.6055 13.1138 20.4487 12.9562C20.1664 12.704 19.8215 12.6095 19.4451 12.5464C19.1628 12.5149 18.8492 12.5149 18.5356 12.6095C18.4415 12.641 18.3474 12.641 18.2847 12.6725C18.2847 12.6725 18.2847 12.6725 18.2847 12.704C18.2219 12.7355 18.1278 12.7671 18.0651 12.7986C17.9397 12.8616 17.8142 12.8932 17.7515 12.9877C17.6574 13.0823 17.5947 13.1454 17.4692 13.1769C17.4692 13.1454 17.4379 13.1454 17.4692 13.1769ZM3.88901 14.7846C3.85764 16.1086 4.92399 16.9912 5.92761 17.0543C6.77441 17.1173 7.4644 16.8021 7.96621 16.1086C8.21711 15.7618 8.37393 15.3835 8.40529 14.9737C8.43666 14.1541 8.15439 13.4606 7.4644 12.9562C7.11941 12.704 6.74305 12.5464 6.33533 12.5149C5.64534 12.4518 5.04944 12.6725 4.579 13.1454C4.13991 13.5867 3.88901 14.1226 3.88901 14.7846ZM16.2147 10.4974C16.2147 8.51138 16.2147 6.52539 16.2147 4.5394C15.8697 4.5394 15.5561 4.5394 15.2111 4.5394C15.2111 4.60245 15.2111 4.63397 15.2111 4.69702C15.2111 5.13835 15.2111 5.57968 15.2111 6.05254C15.2111 6.55691 15.2424 7.02977 15.2424 7.53415C15.2424 7.59719 15.2111 7.62872 15.2111 7.69176C15.2111 8.57443 15.2111 9.48861 15.2111 10.3713C15.2111 10.4343 15.2111 10.4974 15.3052 10.4974C15.6188 10.4974 15.9011 10.4974 16.2147 10.4974ZM22.1737 14.3433C22.895 14.3433 23.6164 14.3433 24.3377 14.3433C24.5259 14.3433 24.7141 14.3433 24.9023 14.3433C25.0277 14.3433 25.0905 14.2802 25.0905 14.1541C25.0905 13.9965 25.0277 13.9334 24.8709 13.9334C23.9927 13.9334 23.1146 13.9334 22.2364 13.9334C22.2051 13.9334 22.1737 13.9334 22.111 13.9334C22.111 14.0595 22.1423 14.1856 22.1737 14.3433Z" fill="#121212"/>
<path d="M9.22073 15.2259C9.09528 16.1086 8.6562 16.8336 7.93485 17.338C7.33895 17.7793 6.64896 17.9685 5.89625 17.9054C5.17489 17.8424 4.54763 17.5587 4.01446 17.0543C3.48129 16.5499 3.19902 15.951 3.07357 15.2259C2.72857 15.2259 2.38358 15.2259 2.06995 15.2259C1.78768 15.2259 1.47405 15.2259 1.19178 15.2259C0.97224 15.2259 0.752699 15.1629 0.56452 15.0368C0.125437 14.7215 0.0313476 14.3433 0.125437 13.8389C0.188163 13.6182 0.313615 13.4291 0.501794 13.303C0.658609 13.2084 0.815425 13.0823 1.0036 13.0823C1.03497 13.0823 1.06633 13.0508 1.09769 13.0508C1.09769 13.0193 1.09769 12.9562 1.09769 12.8932C1.09769 11.6953 1.09769 10.4658 1.09769 9.26795C1.09769 9.04728 1.16042 8.88966 1.31723 8.73204C1.53678 8.47986 1.75632 8.22767 1.97586 7.97548C2.28949 7.59719 2.60312 7.21891 2.91675 6.84063C3.19902 6.49387 3.44992 6.17863 3.70083 5.83187C3.9831 5.48511 4.26536 5.16987 4.54763 4.85464C4.67308 4.72854 4.76717 4.57092 4.89263 4.44483C4.95535 4.38178 5.0808 4.31873 5.17489 4.31873C6.55487 4.31873 7.90348 4.31873 9.28346 4.31873C9.53436 4.31873 9.78527 4.35026 10.0048 4.41331C10.3498 4.47635 10.6948 4.60245 10.9771 4.85464C11.1966 5.04378 11.3221 5.29597 11.4161 5.57968C11.5416 6.02101 11.573 6.46234 11.573 6.9352C11.573 8.07005 11.573 9.2049 11.573 10.3398C11.573 10.4028 11.573 10.4343 11.573 10.4974C12.5139 10.4974 13.4547 10.4974 14.3956 10.4974C14.3956 10.4658 14.3956 10.4028 14.3956 10.3398C14.3956 8.25919 14.3956 6.17863 14.3956 4.12959C14.3956 3.8774 14.6152 3.65674 14.8661 3.65674C15.3993 3.68826 15.9324 3.65674 16.4656 3.65674C16.6224 3.65674 16.7165 3.53064 16.8106 3.4676C16.9988 3.37303 17.187 3.21541 17.3751 3.08931C17.6574 2.86865 17.971 2.64798 18.2533 2.42732C18.6297 2.1436 19.006 1.89141 19.3824 1.63923C19.6646 1.45008 19.9469 1.26094 20.2292 1.0718C20.4487 0.914182 20.6683 0.72504 20.9192 0.567421C21.1387 0.409803 21.3582 0.220661 21.6092 0.0945669C21.7032 0.0315196 21.8914 0.0630432 21.9855 0.0945669C22.111 0.157614 22.2051 0.252185 22.2051 0.409803C22.2051 2.52189 22.2051 4.60245 22.2051 6.71453C22.2051 6.84063 22.1423 6.90367 22.0482 6.99824C21.9541 7.09282 21.8287 7.21891 21.7346 7.345C21.6719 7.43958 21.6405 7.56567 21.7346 7.66024C21.8601 7.78634 21.9855 7.91243 22.1423 8.03852C22.2678 8.1331 22.4246 8.19614 22.5814 8.29071C22.7069 8.35376 22.801 8.32224 22.8637 8.19614C22.9578 8.03852 23.0205 7.88091 23.1146 7.72329C23.1773 7.59719 23.3655 7.4711 23.4909 7.50262C23.6478 7.50262 23.8046 7.56567 23.8987 7.75481C23.9927 7.91243 23.93 8.03852 23.8673 8.16462C23.7418 8.44833 23.585 8.73204 23.3341 8.98423C23.2087 9.11033 23.0832 9.2049 22.895 9.2049C22.7069 9.2049 22.4873 9.23642 22.3305 9.17338C22.0796 9.0788 21.8287 8.92119 21.6092 8.79509C21.3582 8.63747 21.1073 8.44833 20.9819 8.16462C20.9192 8.03852 20.8564 7.88091 20.8564 7.72329C20.8251 7.53415 20.8251 7.31348 20.9192 7.15586C21.0446 6.96672 21.1387 6.8091 21.2642 6.61996C21.2955 6.55691 21.3269 6.52539 21.3269 6.46234C21.3269 4.79159 21.3269 3.15236 21.3269 1.48161C21.3269 1.45008 21.3269 1.41856 21.3269 1.38704C21.1073 1.54465 20.9192 1.70227 20.731 1.82837C20.5114 1.98599 20.2605 2.1436 20.0096 2.30122C19.7274 2.49036 19.4451 2.71103 19.1628 2.90017C18.7865 3.18388 18.3788 3.43607 18.0024 3.71979C17.7201 3.90893 17.4692 4.12959 17.187 4.31873C17.1242 4.38178 17.0929 4.41331 17.0929 4.47635C17.0929 5.80035 17.0929 7.15586 17.0929 8.47986C17.0929 9.11033 17.0929 9.7408 17.0929 10.3713C17.0929 10.4028 17.0929 10.4658 17.0929 10.5289C17.1556 10.5289 17.187 10.5289 17.2497 10.5289C19.2883 10.5289 21.3582 10.5289 23.3968 10.5289C23.7105 10.5289 23.9927 10.5289 24.3064 10.5289C24.62 10.4974 24.7768 10.7496 24.7768 11.0333C24.7768 11.6637 24.7768 12.3257 24.7768 12.9562C24.7768 12.9877 24.7768 13.0508 24.7768 13.0823C24.965 13.1138 25.1218 13.1454 25.2786 13.1769C25.4668 13.2399 25.655 13.3975 25.7491 13.5552C25.9373 13.8389 25.9686 14.1541 25.8745 14.4693C25.8118 14.7531 25.5923 14.9737 25.3414 15.1313C25.0591 15.289 24.7768 15.289 24.4632 15.2574C24.275 15.2259 24.0868 15.289 23.8987 15.289C23.3028 15.289 22.7382 15.289 22.1423 15.289C22.0796 15.5096 22.0482 15.6988 21.9541 15.9194C21.8601 16.1401 21.7346 16.3608 21.6092 16.5814C21.4837 16.8336 21.2642 17.0543 21.0446 17.2434C20.9192 17.3695 20.7623 17.4326 20.6369 17.5587C20.4174 17.7163 20.1664 17.8109 19.9469 17.8739C19.7587 17.9369 19.5706 17.9685 19.351 18C19.0374 18 18.7237 18.0315 18.4101 17.9369C18.2219 17.8739 18.0024 17.8424 17.8142 17.7478C17.5633 17.6217 17.3438 17.4956 17.1242 17.338C16.842 17.1489 16.6224 16.8967 16.4656 16.613C16.3088 16.3292 16.1206 16.0771 16.0579 15.7303C16.0265 15.6042 16.0265 15.5096 15.9638 15.3835C15.9638 15.352 15.9324 15.3205 15.9011 15.289C15.9011 15.289 15.8697 15.289 15.8383 15.289C13.6429 15.289 11.4789 15.289 9.28346 15.289C9.31482 15.2259 9.28346 15.2259 9.22073 15.2259ZM16.0892 13.9019C16.0579 13.9019 15.9952 13.9019 15.9638 13.9019C14.3643 13.9019 12.7334 13.9019 11.1339 13.9019C10.9143 13.9019 10.6634 13.6813 10.6634 13.4291C10.6634 11.4116 10.6634 9.39404 10.6634 7.37653C10.6634 6.9352 10.7262 6.46234 10.6007 6.02101C10.5693 5.86339 10.538 5.70578 10.4439 5.57968C10.2871 5.32749 10.0362 5.26444 9.78527 5.2014C9.62845 5.16987 9.47164 5.16987 9.34618 5.16987C8.9071 5.16987 8.49938 5.16987 8.0603 5.16987C8.02894 5.16987 7.96621 5.16987 7.90348 5.16987C7.90348 5.23292 7.90348 5.29597 7.90348 5.32749C7.90348 6.61996 7.90348 7.94395 7.90348 9.23642C7.90348 9.48861 7.90348 9.48861 7.65258 9.48861C6.6176 9.48861 5.58261 9.52014 4.51627 9.52014C4.26536 9.52014 4.01446 9.48861 3.76356 9.48861C3.19902 9.48861 2.60312 9.48861 2.03859 9.48861C2.00722 9.48861 1.97586 9.48861 1.91313 9.48861C1.91313 9.55166 1.91313 9.61471 1.91313 9.64623C1.91313 10.8126 1.91313 11.979 1.91313 13.1454C1.91313 13.7128 1.78768 13.9019 1.22314 13.8389C1.19178 13.8389 1.16042 13.8389 1.12906 13.8389C0.97224 13.8389 0.909514 13.9334 0.909514 14.0595C0.909514 14.1856 0.97224 14.2487 1.12906 14.2487C1.63087 14.2487 2.10131 14.2487 2.60312 14.2487C2.75994 14.2487 2.88539 14.2487 3.07357 14.2487C3.19902 13.5552 3.48129 12.9247 4.01446 12.4203C4.51627 11.9159 5.14353 11.6322 5.83352 11.5692C6.58623 11.5061 7.30758 11.6637 7.93485 12.1051C8.6562 12.641 9.09528 13.3345 9.2521 14.2487C10.193 14.2487 11.0712 14.2487 11.9807 14.2487C13.2979 14.2487 14.6152 14.2487 15.9011 14.2487C15.9952 14.2487 16.0579 14.2172 16.0579 14.1226C16.0265 14.1226 16.0579 14.028 16.0892 13.9019ZM11.5416 13.0508C11.6043 13.0508 11.6671 13.0508 11.6984 13.0508C13.2352 13.0508 14.7406 13.0508 16.2774 13.0508C16.4342 13.0508 16.5597 13.0193 16.6224 12.8616C16.6538 12.7986 16.6851 12.7671 16.7165 12.7355C16.9674 12.4518 17.2497 12.1996 17.5947 12.0105C17.971 11.7898 18.3788 11.6637 18.7865 11.6322C19.2256 11.6007 19.6333 11.6322 20.041 11.7898C20.4174 11.9159 20.7623 12.1051 21.0446 12.3573C21.2642 12.5464 21.421 12.7355 21.6092 12.9562C21.6719 13.0193 21.7032 13.0508 21.766 13.0508C22.456 13.0508 23.1146 13.0508 23.8046 13.0508C23.8359 13.0508 23.8673 13.0508 23.93 13.0508C23.93 12.4834 23.93 11.9159 23.93 11.3485C19.7901 11.3485 15.6815 11.3485 11.5416 11.3485C11.5416 11.9159 11.5416 12.4834 11.5416 13.0508ZM7.08804 8.70052C7.08804 7.53415 7.08804 6.36777 7.08804 5.2014C6.49214 5.2014 5.92761 5.2014 5.33171 5.2014C5.30035 5.2014 5.26898 5.23292 5.23762 5.23292C4.89263 5.64273 4.54763 6.08406 4.20264 6.49387C3.92037 6.8091 3.66947 7.15586 3.3872 7.4711C3.07357 7.84938 2.75994 8.25919 2.41494 8.669C3.9831 8.70052 5.51989 8.70052 7.08804 8.70052ZM17.4692 13.1769C17.4065 13.2399 17.3438 13.3345 17.281 13.3975C17.2497 13.4606 17.1556 13.4921 17.1556 13.5236C17.0929 13.6497 17.0301 13.7758 16.9988 13.9334C16.9361 14.1541 16.842 14.3748 16.842 14.5954C16.8106 14.9107 16.8733 15.1944 16.9674 15.5096C17.0929 15.9194 17.3124 16.2347 17.626 16.5184C17.971 16.8021 18.3474 16.9912 18.7865 17.0543C19.0374 17.0858 19.2883 17.0858 19.5392 17.0228C19.8842 16.9282 20.1664 16.8336 20.4487 16.613C20.8564 16.2977 21.1701 15.8879 21.2955 15.3835C21.3582 15.1629 21.3896 14.9422 21.3896 14.7531C21.3896 14.4693 21.3582 14.2172 21.2014 13.965C21.1073 13.7758 21.0133 13.5552 20.8878 13.3975C20.7623 13.2399 20.6055 13.1138 20.4487 12.9562C20.1664 12.704 19.8215 12.6095 19.4451 12.5464C19.1628 12.5149 18.8492 12.5149 18.5356 12.6095C18.4415 12.641 18.3474 12.641 18.2847 12.6725C18.2847 12.6725 18.2847 12.6725 18.2847 12.704C18.2219 12.7355 18.1278 12.7671 18.0651 12.7986C17.9397 12.8616 17.8142 12.8932 17.7515 12.9877C17.6574 13.0823 17.5947 13.1454 17.4692 13.1769C17.4379 13.1454 17.4692 13.1454 17.4692 13.1769ZM3.88901 14.7846C3.85764 16.1086 4.92399 16.9912 5.92761 17.0543C6.77441 17.1173 7.4644 16.8021 7.96621 16.1086C8.21711 15.7618 8.37393 15.3835 8.40529 14.9737C8.43666 14.1541 8.15439 13.4606 7.4644 12.9562C7.11941 12.704 6.74305 12.5464 6.33533 12.5149C5.64534 12.4518 5.04944 12.6725 4.579 13.1454C4.13991 13.5867 3.88901 14.1226 3.88901 14.7846ZM16.2147 10.4974C16.2147 8.51138 16.2147 6.52539 16.2147 4.5394C15.8697 4.5394 15.5561 4.5394 15.2111 4.5394C15.2111 4.60245 15.2111 4.63397 15.2111 4.69702C15.2111 5.13835 15.2111 5.57968 15.2111 6.05254C15.2111 6.55691 15.2424 7.02977 15.2424 7.53415C15.2424 7.59719 15.2111 7.62872 15.2111 7.69176C15.2111 8.57443 15.2111 9.48861 15.2111 10.3713C15.2111 10.4343 15.2111 10.4974 15.3052 10.4974C15.6188 10.4974 15.9011 10.4974 16.2147 10.4974ZM22.1737 14.3433C22.895 14.3433 23.6164 14.3433 24.3377 14.3433C24.5259 14.3433 24.7141 14.3433 24.9023 14.3433C25.0277 14.3433 25.0905 14.2802 25.0905 14.1541C25.0905 13.9965 25.0277 13.9334 24.8709 13.9334C23.9927 13.9334 23.1146 13.9334 22.2364 13.9334C22.2051 13.9334 22.1737 13.9334 22.111 13.9334C22.111 14.0595 22.1423 14.1856 22.1737 14.3433Z" stroke="#121212" stroke-width="0.5" stroke-miterlimit="10"/>
</g>
<defs>
<clipPath id="clip0_196_49191">
<rect width="26" height="18" fill="white"/>
</clipPath>
</defs>
</svg>
