<svg width="16" height="16" viewBox="0 0 16 16" fill="none" xmlns="http://www.w3.org/2000/svg">
<g clip-path="url(#clip0_196_55396)">
<path d="M0.274914 2.80412C0.439862 3.02406 0.604811 3.189 0.824742 3.35395C1.20962 3.73883 1.5945 4.12371 1.97938 4.50859C2.14433 4.67354 2.36426 4.89347 2.52921 5.05842C2.58419 5.1134 2.69416 5.16839 2.80412 5.1134C2.91409 5.05842 3.07904 5.05842 3.189 5.00344C3.35395 5.00344 3.46392 5.00344 3.57388 4.94845C3.8488 4.89347 4.12371 4.78351 4.39862 4.72852C4.56357 4.67354 4.67354 4.61856 4.67354 4.45361C4.72852 4.12371 4.83849 3.8488 4.94845 3.5189C5.00344 3.29897 5.05842 3.07904 5.16838 2.80412C5.22337 2.69416 5.1134 2.58419 5.05842 2.47423C4.50859 1.9244 4.01375 1.42955 3.46392 0.879725C3.29897 0.714777 3.07904 0.494845 2.91409 0.329897C2.91409 0.329897 2.85911 0.274914 2.80412 0.219931C2.91409 0.164948 3.02405 0.164948 3.13402 0.109966C3.29897 0.109966 3.46392 0.0549828 3.62887 0C3.68385 0 3.79381 0 3.8488 0C4.12371 0 4.39862 0 4.67354 0C4.83849 0 5.00344 0.0549828 5.16838 0.0549828C5.33333 0.109966 5.55326 0.164948 5.71821 0.219931C5.99313 0.274914 6.21306 0.439863 6.43299 0.549828C6.7079 0.714777 6.98282 0.879725 7.20275 1.15464C7.3677 1.31959 7.53264 1.42955 7.64261 1.64948C7.80756 1.86942 7.97251 2.08935 8.08247 2.36426C8.13746 2.52921 8.24742 2.74914 8.3024 2.96907C8.35739 3.07904 8.35739 3.24399 8.41237 3.35395C8.52234 3.73883 8.46735 4.06873 8.46735 4.45361C8.46735 4.67354 8.41237 4.89347 8.41237 5.05842C8.35739 5.22337 8.35739 5.38832 8.3024 5.49828C8.3024 5.49828 8.3024 5.55326 8.3024 5.60825C8.68728 5.99313 9.07216 6.37801 9.51203 6.81787C9.89691 7.20275 10.2818 7.58763 10.6667 7.97251C11.0515 8.35739 11.4364 8.68729 11.7663 9.07216C12.2612 9.56701 12.701 10.0069 13.1959 10.5017C13.5808 10.8866 14.0206 11.3265 14.4055 11.7113C14.7904 12.0962 15.1753 12.4811 15.5601 12.866C15.7251 13.0309 15.835 13.3058 15.945 13.5258C16 13.6357 16 13.8007 16.055 13.9107C16.11 14.1856 16.055 14.4055 16 14.6804C15.945 14.8454 15.835 15.0653 15.7251 15.2302C15.5601 15.4502 15.3402 15.6151 15.0653 15.7801C14.7904 15.89 14.4605 15.945 14.1306 15.945C13.9107 15.945 13.6907 15.89 13.4708 15.7801C13.0859 15.6151 12.756 15.2852 12.4811 15.0103C12.0962 14.6254 11.7113 14.2406 11.2715 13.8007C11.2165 13.7457 11.2165 13.7457 11.2715 13.6907C11.2715 13.6907 11.2715 13.6357 11.2715 13.5808C11.3265 13.3058 11.3814 13.0309 11.3814 12.756C11.3814 12.5361 11.3814 12.2612 11.3265 12.0412C11.2715 11.8213 11.2165 11.6014 11.1615 11.4364C11.1065 11.3265 11.0515 11.1615 11.0515 11.0515C10.9416 10.7766 10.7766 10.5567 10.6667 10.3368C10.4467 10.0069 10.2268 9.78694 9.89691 9.51203C9.62199 9.2921 9.29209 9.07217 8.9622 8.90722C8.79725 8.85223 8.57732 8.74227 8.35739 8.68729C8.08247 8.57732 7.75258 8.52234 7.47766 8.57732C7.42268 8.57732 7.3677 8.52234 7.31271 8.52234C7.09278 8.52234 6.92783 8.57732 6.7079 8.57732C6.54295 8.57732 6.43299 8.6323 6.26804 8.6323C6.10309 8.68729 6.04811 8.57732 5.99313 8.52234C5.88316 8.41237 5.82818 8.35739 5.7732 8.24742C5.66323 8.24742 5.60825 8.24742 5.55326 8.24742C5.38832 8.30241 5.22337 8.30241 5.00344 8.35739C4.61856 8.46735 4.23368 8.41237 3.8488 8.41237C3.62887 8.41237 3.40893 8.35739 3.189 8.30241C3.02405 8.24742 2.85911 8.24742 2.69416 8.13746C2.52921 8.08247 2.36426 8.02749 2.19931 7.91753C1.97938 7.80756 1.75945 7.64261 1.53952 7.47766C1.31959 7.31272 1.09966 7.09278 0.879725 6.87285C0.604811 6.54296 0.38488 6.15808 0.219931 5.7732C0.164948 5.49828 0.109966 5.22337 0.0549828 4.94845C0 4.61856 0 4.28866 0 3.90378C0 3.68385 0.0549828 3.40893 0.109966 3.189C0.109966 3.07904 0.164948 2.96907 0.164948 2.85911C0.219931 2.91409 0.219931 2.85911 0.274914 2.80412ZM13.6907 12.866C13.1959 12.866 12.866 13.2509 12.866 13.6907C12.866 14.1306 13.2509 14.4605 13.6357 14.5155C14.1856 14.5155 14.5155 14.1306 14.5155 13.6907C14.5155 13.2509 14.1856 12.866 13.6907 12.866Z" fill="#CD0612"/>
<path d="M7.20287 15.835C7.03792 15.835 6.81799 15.8351 6.65304 15.7801C6.48809 15.7251 6.26816 15.6701 6.10321 15.6151C5.88328 15.5601 5.71833 15.4502 5.4984 15.3402C5.22349 15.1753 5.00356 14.9553 4.78362 14.7354C4.56369 14.4605 4.34376 14.1306 4.2338 13.8007C4.12383 13.5808 4.06885 13.3058 4.06885 13.0859C4.06885 13.0309 4.06885 12.921 4.06885 12.866C4.06885 12.701 4.06885 12.5911 4.06885 12.4261C4.06885 12.2612 4.12383 12.0412 4.17881 11.8763C4.2338 11.5464 4.34376 11.2715 4.50871 10.9966C4.67366 10.7216 4.89359 10.4467 5.1685 10.2268C5.33345 10.0619 5.55338 9.95189 5.77331 9.84192C5.99325 9.73196 6.21318 9.62199 6.43311 9.56701C6.81799 9.45704 7.20287 9.45704 7.58775 9.51203C7.86266 9.51203 8.08259 9.62199 8.35751 9.73196C8.63242 9.84192 8.90734 10.0069 9.18225 10.2268C9.51215 10.5017 9.78706 10.8316 10.007 11.2165C10.117 11.4364 10.1719 11.6014 10.2269 11.8213C10.2819 11.9863 10.3369 12.1512 10.3369 12.3161C10.3369 12.5911 10.3369 12.811 10.2819 13.0859C10.2819 13.3058 10.2269 13.5258 10.117 13.7457C10.007 13.9656 9.89703 14.2405 9.73208 14.4605C9.56713 14.6804 9.40218 14.8454 9.23723 15.0103C9.0173 15.1753 8.79737 15.3402 8.57744 15.4502C8.35751 15.5601 8.13758 15.6151 7.91764 15.6701C7.7527 15.8351 7.47778 15.835 7.20287 15.835C7.20287 15.89 7.20287 15.89 7.20287 15.835ZM6.81799 12.9759C6.76301 12.921 6.76301 12.921 6.70802 12.866C6.48809 12.646 6.32314 12.4811 6.10321 12.2612C6.04823 12.2062 5.93826 12.2062 5.8283 12.2612C5.71833 12.3711 5.66335 12.4261 5.55338 12.5361C5.4984 12.5911 5.4984 12.701 5.55338 12.756C5.93826 13.1409 6.26816 13.4708 6.65304 13.8557C6.76301 13.9656 6.81799 13.9656 6.92795 13.8557C7.14789 13.6357 7.36782 13.4158 7.53276 13.2509C7.97263 12.811 8.41249 12.3711 8.79737 11.9863C8.85235 11.9313 8.90734 11.8763 8.79737 11.7663C8.6874 11.6564 8.57744 11.5464 8.46747 11.3814C8.35751 11.2715 8.30252 11.3814 8.24754 11.4364C8.08259 11.6014 7.86266 11.8213 7.69771 11.9863C7.4228 12.3161 7.0929 12.646 6.81799 12.9759Z" fill="#CD0612"/>
</g>
<defs>
<clipPath id="clip0_196_55396">
<rect width="16" height="16" fill="white"/>
</clipPath>
</defs>
</svg>
